<?xml version="1.0" encoding="UTF-8"?>
<!-- Generated by Pixelmator Pro 3.8 -->
<svg width="2834" height="2273" viewBox="0 0 2834 2273" xmlns="http://www.w3.org/2000/svg">
    <g id="Layer-1">
        <g id="Group">
            <g id="g1">
                <path id="Path" fill="none" stroke="none" d="M 1669.565674 20.552246 C 1672.276855 19.798584 1674.972656 19.08252 1677.659912 18.386719 C 1674.972412 19.08252 1672.276855 19.798584 1669.565674 20.552246 Z"/>
                <path id="path1" fill="none" stroke="none" d="M 1628.757324 33.287842 C 1630.404541 32.734375 1632.054688 32.177002 1633.69458 31.631836 C 1632.054932 32.176514 1630.404297 32.734375 1628.757324 33.287842 Z"/>
                <path id="path2" fill="none" stroke="none" d="M 1638.788574 29.959961 C 1640.589111 29.37085 1642.388184 28.784424 1644.179688 28.209229 C 1642.388428 28.784424 1640.588867 29.37085 1638.788574 29.959961 Z"/>
                <path id="path3" fill="none" stroke="none" d="M 1649.135742 26.637451 C 1650.981201 26.057129 1652.820557 25.488037 1654.656006 24.926025 C 1652.820557 25.488037 1650.980713 26.057129 1649.135742 26.637451 Z"/>
                <path id="path4" fill="none" stroke="none" d="M 1659.401855 23.488037 C 1661.368408 22.901611 1663.323975 22.338623 1665.278809 21.777588 C 1663.323975 22.338623 1661.368164 22.901611 1659.401855 23.488037 Z"/>
                <path id="path5" fill="none" stroke="none" d="M 1381.516724 76.098877 C 1382.920776 76.371582 1384.327393 76.622803 1385.734497 76.874512 C 1384.327393 76.622803 1382.920532 76.371094 1381.516724 76.098877 Z"/>
                <path id="path6" fill="none" stroke="none" d="M 1335.57959 63.928467 C 1336.819458 64.333252 1338.056396 64.746338 1339.29895 65.141602 C 1338.056396 64.746826 1336.819092 64.333252 1335.57959 63.928467 Z"/>
                <path id="path7" fill="none" stroke="none" d="M 1324.785034 60.282715 C 1326.140991 60.756104 1327.495972 61.229736 1328.855591 61.693604 C 1327.496582 61.229736 1326.140747 60.756104 1324.785034 60.282715 Z"/>
                <path id="path8" fill="none" stroke="none" d="M 1347.525269 67.662842 C 1348.281494 67.888184 1349.034302 68.12915 1349.79187 68.350098 C 1349.034546 68.12915 1348.28186 67.888184 1347.525269 67.662842 Z"/>
                <path id="path9" fill="none" stroke="none" d="M 1360.303711 71.261475 C 1361.213379 71.5 1362.128174 71.710938 1363.039063 71.942383 C 1362.128174 71.710449 1361.213379 71.5 1360.303711 71.261475 Z"/>
                <path id="path10" fill="none" stroke="none" d="M 1370.866821 73.851318 C 1372.149902 74.145752 1373.437134 74.411377 1374.722778 74.69043 C 1373.4375 74.411865 1372.149658 74.145752 1370.866821 73.851318 Z"/>
                <path id="path11" fill="none" stroke="none" d="M 1740.549072 9.088379 C 1737.687256 9.088379 1734.805908 9.167236 1731.907959 9.310059 C 1735.055908 9.155518 1738.180908 9.088379 1741.286621 9.102539 C 1741.039795 9.101563 1740.795898 9.088379 1740.549072 9.088379 Z"/>
                <path id="path12" fill="none" stroke="none" d="M 1742.730469 9.130615 C 1745.343018 9.165283 1747.939453 9.266357 1750.520996 9.430176 C 1747.939453 9.266357 1745.343018 9.165283 1742.730469 9.130615 Z"/>
                <path id="path13" fill="none" stroke="none" d="M 1752.154541 9.528809 C 1755.015869 9.742432 1757.857178 10.043701 1760.679688 10.428223 C 1757.857422 10.043701 1755.016113 9.741943 1752.154541 9.528809 Z"/>
                <path id="path14" fill="none" stroke="none" d="M 1762.394043 10.686035 C 1764.994629 11.074707 1767.580322 11.531738 1770.147217 12.076172 C 1767.580322 11.531738 1764.994873 11.074707 1762.394043 10.686035 Z"/>
                <path id="path15" fill="none" stroke="none" d="M 1314.341187 56.54126 C 1315.687256 57.036133 1317.034546 57.525879 1318.384033 58.013184 C 1317.034912 57.525879 1315.686768 57.036133 1314.341187 56.54126 Z"/>
                <path id="path16" fill="none" stroke="none" d="M 1771.194336 12.285156 C 1773.975342 12.899658 1776.731934 13.630859 1779.472656 14.440186 C 1776.731934 13.630859 1773.975098 12.899658 1771.194336 12.285156 Z"/>
                <path id="path17" fill="none" stroke="none" d="M 1692.893555 14.776855 C 1694.976563 14.328857 1697.055664 13.891846 1699.123535 13.48999 C 1697.055908 13.891846 1694.976318 14.328857 1692.893555 14.776855 Z"/>
                <path id="path18" fill="none" stroke="none" d="M 1703.0625 12.763672 C 1705.044434 12.407227 1707.019043 12.073486 1708.986572 11.764893 C 1707.019043 12.073975 1705.044434 12.406738 1703.0625 12.763672 Z"/>
                <path id="path19" fill="none" stroke="none" d="M 1680.879395 17.564697 C 1683.68457 16.861816 1686.479492 16.188232 1689.258301 15.558594 C 1686.479492 16.188232 1683.684814 16.861816 1680.879395 17.564697 Z"/>
                <path id="path20" fill="none" stroke="none" d="M 1722.467529 10.023193 C 1725.042236 9.772461 1727.600098 9.58374 1730.148193 9.434326 C 1727.600342 9.58374 1725.04248 9.771973 1722.467529 10.023193 Z"/>
                <path id="path21" fill="none" stroke="none" d="M 1712.862305 11.181885 C 1714.911621 10.893066 1716.949951 10.64624 1718.983398 10.414795 C 1716.949951 10.64624 1714.911621 10.893066 1712.862305 11.181885 Z"/>
                <path id="path22" fill="none" stroke="none" d="M 1125.74231 1.312012 C 1127.070557 1.205322 1128.412109 1.176758 1129.747681 1.112061 C 1128.412109 1.176758 1127.070557 1.205322 1125.74231 1.312012 Z"/>
                <path id="path23" fill="none" stroke="none" d="M 1136.073242 0.880127 C 1135.765259 0.880127 1135.463135 0.911621 1135.15564 0.913818 C 1137.232178 0.900146 1139.321045 0.953369 1141.414795 1.032227 C 1139.631348 0.965088 1137.844238 0.880127 1136.073242 0.880127 Z"/>
                <path id="path24" fill="none" stroke="none" d="M 1143.739014 1.098877 C 1146.657227 1.255127 1149.591553 1.492676 1152.542847 1.814453 C 1149.591797 1.492676 1146.657227 1.254639 1143.739014 1.098877 Z"/>
                <path id="path25" fill="none" stroke="none" d="M 1154.508667 2.07251 C 1156.824951 2.351563 1159.146851 2.658936 1161.48291 3.03125 C 1159.147095 2.658936 1156.824951 2.351563 1154.508667 2.07251 Z"/>
                <path id="path26" fill="none" stroke="none" d="M 1174.13147 5.469482 C 1175.995361 5.881592 1177.86377 6.312256 1179.739624 6.772217 C 1177.864014 6.311768 1175.995361 5.881592 1174.13147 5.469482 Z"/>
                <path id="path27" fill="none" stroke="none" d="M 1781.341309 15.014404 C 1784.119141 15.883545 1786.883301 16.81958 1789.618408 17.902832 C 1786.883057 16.819092 1784.118652 15.883545 1781.341309 15.014404 Z"/>
                <path id="path28" fill="none" stroke="none" d="M 1107.275879 4.2854 C 1108.269409 4.037354 1109.278076 3.880127 1110.276245 3.660889 C 1109.277832 3.880127 1108.269409 4.037842 1107.275879 4.2854 Z"/>
                <path id="path29" fill="none" stroke="none" d="M 1942.320313 1208.468262 C 1862.822754 1280.43457 1780.989502 1354.584473 1708.280518 1420.493896 C 1781.984863 1358.887451 1853.415283 1294.22583 1922.991943 1227.462402 C 1929.364258 1221.52832 1935.802246 1215.124268 1942.320313 1208.468262 Z"/>
                <path id="path30" fill="none" stroke="none" d="M 1116.444824 2.419922 C 1117.66272 2.223389 1118.89563 2.115723 1120.120483 1.958496 C 1118.895874 2.115723 1117.662964 2.223389 1116.444824 2.419922 Z"/>
                <path id="path31" fill="none" stroke="none" d="M 1183.410278 7.697754 C 1185.314331 8.193115 1187.225586 8.7146 1189.141235 9.253662 C 1187.225586 8.7146 1185.314331 8.193115 1183.410278 7.697754 Z"/>
                <path id="path32" fill="none" stroke="none" d="M 1234.371094 24.774414 C 1236.376587 25.553711 1238.384155 26.335938 1240.400146 27.133545 C 1238.384399 26.336426 1236.376099 25.553223 1234.371094 24.774414 Z"/>
                <path id="path33" fill="none" stroke="none" d="M 1268.817627 38.622314 C 1270.400146 39.268799 1271.975952 39.912598 1273.564331 40.55957 C 1271.977417 39.913086 1270.398682 39.268311 1268.817627 38.622314 Z"/>
                <path id="path34" fill="none" stroke="none" d="M 1254.44458 32.766602 C 1256.642334 33.658691 1258.844482 34.554199 1261.053711 35.455566 C 1258.845947 34.55542 1256.640625 33.658203 1254.44458 32.766602 Z"/>
                <path id="path35" fill="none" stroke="none" d="M 1192.697876 10.264404 C 1194.757813 10.869141 1196.827393 11.508057 1198.900269 12.157471 C 1196.827637 11.508057 1194.757568 10.869141 1192.697876 10.264404 Z"/>
                <path id="path36" fill="none" stroke="none" d="M 1244.392578 28.720947 C 1246.398315 29.521973 1248.407715 30.327148 1250.423828 31.140869 C 1248.408447 30.327637 1246.397827 29.521484 1244.392578 28.720947 Z"/>
                <path id="path37" fill="none" stroke="none" d="M 1283.868408 44.737061 C 1284.171509 44.859131 1284.477417 44.979004 1284.780884 45.101074 C 1284.477417 44.979004 1284.171509 44.859131 1283.868408 44.737061 Z"/>
                <path id="path38" fill="none" stroke="none" d="M 1293.888794 48.731201 C 1294.948975 49.149902 1296.014404 49.560303 1297.076904 49.976318 C 1296.014648 49.560303 1294.94873 49.149902 1293.888794 48.731201 Z"/>
                <path id="path39" fill="none" stroke="none" d="M 1211.410156 16.270752 C 1214.575439 17.368896 1217.756348 18.511719 1220.950317 19.68457 C 1217.756592 18.511719 1214.575195 17.369385 1211.410156 16.270752 Z"/>
                <path id="path40" fill="none" stroke="none" d="M 1202.028076 13.134033 C 1204.73938 14.008789 1207.463013 14.921875 1210.196167 15.862305 C 1207.463013 14.921875 1204.739014 14.008789 1202.028076 13.134033 Z"/>
                <path id="path41" fill="none" stroke="none" d="M 1304.043823 52.677734 C 1305.316406 53.165527 1306.592529 53.644043 1307.868408 54.126221 C 1306.592773 53.644531 1305.316162 53.165039 1304.043823 52.677734 Z"/>
                <path id="path42" fill="none" stroke="none" d="M 1223.907959 20.790771 C 1226.133179 21.619873 1228.360474 22.45459 1230.599121 23.312744 C 1228.360718 22.45459 1226.132935 21.619873 1223.907959 20.790771 Z"/>
                <path id="path43" fill="none" stroke="none" d="M 1164.723633 3.601318 C 1166.656982 3.942139 1168.593018 4.294678 1170.539307 4.693359 C 1168.592773 4.294678 1166.656982 3.942139 1164.723633 3.601318 Z"/>
                <path id="path44" fill="none" stroke="none" d="M 1502.500244 2041.842285 C 1500.283936 2037.85376 1498.159424 2033.915527 1496.122314 2030.020508 C 1498.159424 2033.915039 1500.283936 2037.854248 1502.500244 2041.842285 Z"/>
                <path id="path45" fill="none" stroke="none" d="M 1247.313599 2158.290527 C 1252.123413 2147.916504 1256.807617 2137.337402 1261.257324 2126.376709 C 1256.807617 2137.336914 1252.123413 2147.916504 1247.313599 2158.290527 Z"/>
                <path id="path46" fill="none" stroke="none" d="M 1212.017212 2223.743896 C 1219.392334 2212.092773 1226.430664 2199.885742 1233.148193 2187.150879 C 1226.430664 2199.885742 1219.392334 2212.092773 1212.017212 2223.743896 Z"/>
                <path id="path47" fill="none" stroke="none" d="M 1464.367188 1952.956543 C 1463.296143 1949.427002 1462.275879 1945.905273 1461.301758 1942.386719 C 1462.275879 1945.905273 1463.296143 1949.427002 1464.367188 1952.956543 Z"/>
                <path id="path48" fill="none" stroke="none" d="M 1261.421631 1447.448486 C 1020.252686 1240.688477 610.429565 888.786133 551.752197 834.810059 C 542.744629 826.52417 534.438477 817.921875 526.820557 809.056885 C 526.820313 809.056396 526.820068 809.056396 526.819824 809.055908 C 534.437988 817.921387 542.744385 826.52417 551.752197 834.810059 C 610.42981 888.786133 1020.25293 1240.688965 1261.422119 1447.448975 C 1261.422119 1447.448486 1261.421631 1447.448486 1261.421631 1447.448486 Z"/>
                <path id="path49" fill="none" stroke="none" d="M 1312.666504 1955.439941 C 1316.161255 1939.60083 1319.478271 1923.484131 1322.576294 1907.028564 C 1319.478271 1923.484131 1316.161255 1939.60083 1312.666504 1955.439941 Z"/>
                <path id="path50" fill="none" stroke="none" d="M 1332.090454 1851.831299 C 1342.413574 1786.248047 1350.079834 1716.624756 1355.728638 1644.174805 C 1350.079834 1716.624756 1342.413818 1786.248047 1332.090454 1851.831299 Z"/>
                <path id="path51" fill="none" stroke="none" d="M 1322.576294 1907.028564 C 1325.974487 1888.978271 1329.140869 1870.56958 1332.090454 1851.831299 C 1329.140869 1870.56958 1325.974487 1888.978271 1322.576294 1907.028564 Z"/>
                <path id="path52" fill="none" stroke="none" d="M 1359.07312 1596.976563 C 1358.769897 1601.615234 1358.481079 1606.273682 1358.162842 1610.892578 C 1358.481323 1606.273682 1358.769897 1601.615723 1359.07312 1596.976563 C 1359.07312 1596.976563 1359.073364 1596.976563 1359.07312 1596.976563 Z"/>
                <path id="path53" fill="none" stroke="none" d="M 1299.285889 2010.807129 C 1303.158203 1996.231934 1306.793213 1981.280762 1310.267822 1966.079102 C 1306.793213 1981.28125 1303.158203 1996.231934 1299.285889 2010.807129 Z"/>
                <path id="path54" fill="none" stroke="none" d="M 1261.257324 2126.376709 C 1272.830933 2097.867188 1283.208618 2067.416016 1292.509888 2035.249512 C 1283.208618 2067.416016 1272.830933 2097.867188 1261.257324 2126.376709 Z"/>
                <path id="path55" fill="#000000" stroke="none" d="M 2518.021729 488.960938 C 2515.893555 494.06958 2513.82251 499.139648 2511.779785 504.138428 C 2492.574219 551.135498 2474.43457 595.52832 2432.861328 609.279541 C 2424.564697 612.026123 2415.702393 613.409668 2406.193115 613.413818 C 2401.586914 613.413818 2396.808105 613.051025 2391.884766 612.39917 C 2405.469727 632.490723 2412.023193 652.389893 2412.023193 672.574219 C 2412.023193 690.092285 2410.016846 707.358398 2406.220459 724.306641 C 2449.577637 685.368164 2481.057373 657.257813 2495.537842 644.62915 C 2563.724854 585.162109 2603.825195 512.424561 2603.825195 433.85791 C 2603.825195 402.997559 2575.336426 368.904297 2527.365234 333.359619 C 2528.067627 334.807617 2528.770508 336.255615 2529.418945 337.736328 C 2547.216797 378.377441 2543.489746 427.844482 2518.021729 488.960938 Z"/>
                <path id="path56" fill="#000000" stroke="none" d="M 2422.391846 577.63501 C 2449.385742 568.705566 2464.001465 532.940918 2480.92041 491.530518 C 2482.991699 486.460693 2485.095215 481.319336 2487.251953 476.139648 C 2509.033203 423.869141 2512.837891 382.969482 2498.885254 351.106934 C 2481.787842 312.063965 2438.375732 285.422607 2373.847168 259.204834 C 2407.994873 304.993896 2422.388428 358.252686 2395.271973 420.137695 L 2392.415527 426.676758 C 2372.562744 472.267822 2352.218506 518.850586 2291.120117 525.324219 C 2309.805176 536.952393 2326.189453 548.329834 2340.359863 559.52832 C 2376.254639 578.03125 2403.245605 583.965332 2422.391846 577.63501 Z"/>
                <path id="path57" fill="#000000" stroke="none" d="M 2207.00293 278.550537 C 2226.11084 344.372803 2217.765381 399.536377 2184.102539 429.899414 C 2173.20874 439.725098 2160.558105 446.242432 2146.829102 450.202148 C 2170.61377 461.032471 2192.656494 471.580322 2213.01709 481.887695 C 2317.752686 514.366943 2335.938965 472.876709 2361.857178 413.366943 L 2364.738037 406.758789 C 2399.224365 328.061768 2355.812256 258.172363 2219.761475 173.593506 C 2188.25415 160.330078 2156.457764 147.529297 2124.392334 135.451416 C 2125.734863 136.877197 2127.088379 138.270752 2128.417969 139.732178 C 2164.147949 179 2192.789795 229.598145 2207.00293 278.550537 Z"/>
                <path id="path58" fill="#000000" stroke="none" d="M 485.670654 567.020508 C 502.240234 553.503174 522.210693 539.755615 546.203857 525.424561 C 549.054688 523.72168 552.012085 522.003418 554.977905 520.28418 C 546.601074 518.60376 538.858276 516.052979 531.71814 512.605957 C 495.94751 495.341309 480.554443 460.176758 464.26001 422.949463 L 463.029175 420.137695 C 435.910767 358.253174 450.302856 304.994385 484.449707 259.205811 C 419.918945 285.424072 376.506958 312.063965 359.409729 351.109131 C 345.457092 382.971436 349.263672 423.869141 371.045044 476.139648 C 372.701172 480.11499 374.324707 484.053711 375.925842 487.939697 C 393.375732 530.290039 407.159546 563.741211 433.187012 572.308594 C 446.463257 576.682373 463.841431 574.945801 485.670654 567.020508 Z"/>
                <path id="path59" fill="#000000" stroke="none" d="M 519.233398 220.645996 C 518.068115 221.161621 516.915039 221.677979 515.75415 222.193604 L 516.23584 223.511475 C 517.228149 222.552734 518.226807 221.597656 519.233398 220.645996 Z"/>
                <path id="path60" fill="#000000" stroke="none" d="M 445.514648 607.839111 C 437.447266 607.561523 429.864502 606.306641 422.762207 603.969482 C 382.177856 590.608887 364.998535 548.915771 345.105103 500.63916 C 343.520264 496.793945 341.915039 492.895752 340.275208 488.960938 C 314.809326 427.844482 311.080078 378.379639 328.875854 337.738281 C 333.49646 327.185791 339.525208 317.491943 346.678284 308.505615 C 274.70282 352.664063 230.207703 395.479004 230.207703 433.85791 C 230.207703 509.249023 267.126831 579.286865 330.353943 637.384766 C 345.660522 651.449951 380.021301 681.663818 427.531372 722.998291 C 423.911377 706.454102 422.009644 689.621582 422.009644 672.574219 C 422.009644 650.765869 429.905151 629.074463 445.514648 607.839111 Z"/>
                <path id="path61" fill="#000000" stroke="none" d="M 683.307129 287.842041 C 668.12561 340.136963 673.06543 383.990723 696.52124 405.147461 C 712.10022 419.196289 736.690186 424.311523 768.328003 420.669922 C 776.175415 417.537109 784.10791 414.395508 792.219727 411.233398 C 819.807617 400.47998 847.595459 390.512939 875.537354 381.202881 C 842.961304 325.62793 824.955444 271.819336 824.955444 227.780029 C 824.955444 184.736816 841.440063 142.648682 872.87561 104.289551 C 850.524292 108.22583 828.189819 112.784668 805.858521 118.002197 C 746.922485 156.031006 701.364868 225.641113 683.307129 287.842041 Z"/>
                <path id="path62" fill="#000000" stroke="none" d="M 493.55896 406.758789 L 494.795898 409.582764 C 509.145264 442.366699 521.539551 470.680908 546.205811 482.586914 C 564.449219 491.391846 590.543579 491.619141 625.107544 483.267578 C 648.984497 471.642334 675.102417 459.724121 703.407715 447.541992 C 692.77771 443.523926 682.924561 437.771484 674.196533 429.899414 C 640.533691 399.536377 632.18811 344.37085 651.296143 278.550537 C 665.507202 229.598145 694.148926 179 729.880981 139.72998 C 730.417603 139.140625 730.967163 138.586182 731.505981 138.002197 C 706.080566 145.78418 680.638306 154.523438 655.155884 164.445801 C 650.684082 166.186768 646.2323 167.932373 641.791016 169.679443 L 642.625122 171.034912 C 503.306274 256.770996 458.726196 327.266602 493.55896 406.758789 Z"/>
                <path id="path63" fill="#000000" stroke="none" d="M 2033.342285 227.780029 C 2033.342285 273.056396 2014.760742 327.726563 1981.182129 384.023926 C 2011.691162 394.428223 2041.901367 405.670898 2071.741455 417.76416 C 2112.24585 425.926025 2143.324219 421.791748 2161.775879 405.147461 C 2185.233643 383.990723 2190.17334 340.138916 2174.991943 287.843994 C 2150.65918 204.026611 2076.416016 106.699951 1986.755371 91.416748 L 1987.086426 89.474854 C 1980.259033 87.504883 1973.422363 85.578125 1966.573242 83.70752 C 2010.020264 127.147217 2033.342285 176.284668 2033.342285 227.780029 Z"/>
                <path id="path64" fill="#000000" stroke="none" d="M 551.752197 834.810059 C 610.429565 888.786133 1020.252686 1240.688477 1261.421631 1447.448486 C 1195.40979 1346.952637 1113.557617 1169.183105 1035.60791 955.186768 C 971.778564 779.955811 903.983276 557.464355 893.102417 428.092773 C 865.347778 437.290771 837.751465 447.149414 810.378418 457.819336 C 683.234863 507.37793 570.981567 560.202393 513.239746 609.069092 C 510.61499 611.290283 508.103149 613.503174 505.70752 615.707275 C 500.91626 620.115479 496.590088 624.488525 492.759399 628.820557 C 479.351807 643.983154 472.009766 658.645508 472.009766 672.574219 C 472.009766 680.085938 472.469238 687.53125 473.371338 694.899902 C 478.39502 735.931641 497.181641 774.565918 526.819824 809.055908 C 526.820068 809.056396 526.820313 809.056396 526.820557 809.056885 C 534.438477 817.921875 542.744629 826.52417 551.752197 834.810059 Z"/>
                <path id="path65" fill="#000000" stroke="none" d="M 1964.922119 431.284912 C 1953.192383 559.646973 1886.692627 778.142578 1824.07959 950.767822 C 1759.170898 1129.722412 1664.572754 1352.353516 1585.935547 1463.925293 C 1810.568115 1260.219727 2217.295166 891.661865 2275.798584 840.584961 C 2292.765625 825.771973 2307.548828 809.925049 2319.855713 793.227051 C 2322.317383 789.887207 2324.679443 786.513672 2326.94043 783.106934 C 2335.984375 769.481689 2343.406494 755.33374 2349.057129 740.756348 C 2357.532715 718.891113 2362.023193 696.05957 2362.023193 672.574219 C 2362.023193 625.565918 2279.283447 569.154541 2163.479248 513.221924 C 2142.033936 502.864258 2119.455078 492.522949 2096.057373 482.260498 C 2052.918945 463.3396 2009.160645 446.371338 1964.922119 431.284912 Z"/>
                <path id="path66" fill="#000000" stroke="none" d="M 1573.036621 1407.862061 C 1577.919434 1400.000244 1582.875732 1391.725586 1587.894775 1383.067139 C 1592.914063 1374.40918 1597.996094 1365.367432 1603.130371 1355.97168 C 1608.264893 1346.575684 1613.45166 1336.826172 1618.680176 1326.752441 C 1626.522949 1311.64209 1634.459473 1295.802734 1642.454102 1279.333252 C 1717.070801 1125.621338 1796.749023 917.095703 1852.419922 735.169922 C 1854.408203 728.671875 1856.365723 722.208984 1858.291504 715.782959 C 1862.142822 702.931641 1865.866455 690.230469 1869.45166 677.709717 C 1871.244141 671.448975 1873.002441 665.233643 1874.724365 659.067139 C 1883.334961 628.234131 1891.046875 598.620361 1897.696289 570.689209 C 1905.675049 537.171143 1912.122559 506.076904 1916.752686 478.206543 C 1917.153076 475.796387 1917.501709 473.478516 1917.874756 471.116943 C 1881.801025 512.995117 1840.102539 551.42749 1795.022949 584.556396 C 1770.17749 821.358398 1693.250244 1174.926025 1590.363525 1321.398193 C 1572.282471 1347.138672 1553.397949 1354.055664 1533.855957 1352.589844 C 1535.25 1387.905273 1536.869873 1422.925537 1538.744873 1457.591064 C 1549.636963 1443.753906 1561.114014 1427.058105 1573.036621 1407.862061 Z"/>
                <path id="path67" fill="#000000" stroke="none" d="M 1272.006226 1327.117188 C 1167.154175 1181.880371 1088.560913 824.084717 1063.331055 584.824951 C 1016.325806 550.373047 974.956909 511.487549 940.390015 471.258789 C 960.256348 597.653564 1019.366699 793.997559 1089.926392 981.941406 C 1102.725952 1016.034668 1115.900879 1049.849121 1129.285156 1082.916504 C 1139.992432 1109.370117 1150.833862 1135.345703 1161.723511 1160.603516 C 1167.168579 1173.232422 1172.625366 1185.681885 1178.083984 1197.921387 C 1194.459961 1234.641113 1210.849487 1269.475586 1226.964966 1301.614746 C 1261.882202 1371.249512 1295.513916 1428.233643 1324.936157 1464.33252 C 1326.114136 1465.777832 1327.25647 1467.181152 1328.371826 1468.552246 C 1329.817871 1430.874512 1330.900024 1392.766602 1331.676392 1354.371582 C 1311.027222 1358.233887 1291.081177 1353.539307 1272.006226 1327.117188 Z"/>
                <path id="path68" fill="#ffffff" stroke="none" d="M 1192.087769 775.636719 C 1190.915161 769.102783 1189.775024 762.595215 1188.659302 756.079346 C 1189.775024 762.595215 1190.915161 769.102783 1192.087769 775.636719 Z"/>
                <path id="path69" fill="#ffffff" stroke="none" d="M 1213.278931 879.983398 C 1212.127075 874.870117 1211.009644 869.846191 1209.924561 864.901367 C 1211.009644 869.846191 1212.127075 874.870117 1213.278931 879.983398 Z"/>
                <path id="path70" fill="#ffffff" stroke="none" d="M 1205.248169 843.146484 C 1204.253052 838.415283 1203.285645 833.74707 1202.343994 829.131836 C 1203.285645 833.74707 1204.253052 838.415283 1205.248169 843.146484 Z"/>
                <path id="path71" fill="#ffffff" stroke="none" d="M 1198.267822 808.6875 C 1197.395996 804.208008 1196.54541 799.766846 1195.713745 795.352539 C 1196.54541 799.766846 1197.395996 804.208496 1198.267822 808.6875 Z"/>
                <path id="path72" fill="#ffffff" stroke="none" d="M 1271.979492 1047.28125 C 1273.394409 1058.144043 1274.907837 1069.192871 1276.52478 1080.42627 C 1274.907837 1069.192871 1273.394409 1058.144043 1271.979492 1047.28125 Z"/>
                <path id="path73" fill="#ffffff" stroke="none" d="M 1187.55127 749.559326 C 1186.450684 743.03418 1185.37085 736.488281 1184.302734 729.887695 C 1185.37085 736.48877 1186.450684 743.03418 1187.55127 749.559326 Z"/>
                <path id="path74" fill="#ffffff" stroke="none" d="M 1195.713745 795.352539 C 1194.881836 790.937988 1194.069092 786.550781 1193.271851 782.180664 C 1194.069092 786.550781 1194.881836 790.937988 1195.713745 795.352539 Z"/>
                <path id="path75" fill="#ffffff" stroke="none" d="M 1261.755859 954.534668 C 1262.628906 964.281494 1263.584106 974.214355 1264.627075 984.333496 C 1263.584106 974.214355 1262.628906 964.281494 1261.755859 954.534668 Z"/>
                <path id="path76" fill="#ffffff" stroke="none" d="M 1264.627075 984.333496 C 1265.669922 994.453125 1266.800415 1004.758301 1268.02417 1015.25 C 1266.800659 1004.758301 1265.669922 994.453125 1264.627075 984.333496 Z"/>
                <path id="path77" fill="#ffffff" stroke="none" d="M 1255.693237 701.062256 C 1256.275879 689.782959 1256.954102 679.27832 1257.682739 669.543701 C 1257.682495 669.543701 1257.682739 669.543701 1257.682495 669.543701 C 1256.953857 679.27832 1256.275879 689.782959 1255.693237 701.062256 Z"/>
                <path id="path78" fill="#ffffff" stroke="none" d="M 1184.302734 729.887695 C 1182.523071 718.886719 1180.776367 707.733398 1179.021118 696.265381 C 1180.776367 707.733398 1182.523071 718.887207 1184.302734 729.887695 Z"/>
                <path id="path79" fill="#ffffff" stroke="none" d="M 1674.997314 756.079346 C 1673.881348 762.595215 1672.741699 769.102783 1671.569092 775.636719 C 1672.741699 769.102783 1673.881348 762.595215 1674.997314 756.079346 Z"/>
                <path id="path80" fill="#ffffff" stroke="none" d="M 1667.942871 795.352539 C 1667.111328 799.766846 1666.260498 804.208008 1665.388916 808.6875 C 1666.260498 804.208496 1667.111328 799.766846 1667.942871 795.352539 Z"/>
                <path id="path81" fill="#ffffff" stroke="none" d="M 1684.635498 696.265381 C 1682.880127 707.733398 1681.133545 718.886719 1679.354004 729.887695 C 1681.133545 718.887207 1682.880127 707.733398 1684.635498 696.265381 Z"/>
                <path id="path82" fill="#ffffff" stroke="none" d="M 1679.354004 729.887695 C 1678.286133 736.488281 1677.206055 743.03418 1676.105225 749.559326 C 1677.206055 743.03418 1678.286133 736.48877 1679.354004 729.887695 Z"/>
                <path id="path83" fill="#ffffff" stroke="none" d="M 1661.312744 829.131836 C 1660.37085 833.74707 1659.403564 838.415283 1658.408447 843.146484 C 1659.403564 838.415283 1660.37085 833.74707 1661.312744 829.131836 Z"/>
                <path id="path84" fill="#ffffff" stroke="none" d="M 1684.635498 696.265381 C 1686.390625 684.797852 1688.154053 673.016113 1689.968262 660.758301 C 1688.154053 673.016113 1686.390625 684.797852 1684.635498 696.265381 Z"/>
                <path id="path85" fill="#ffffff" stroke="none" d="M 1653.732178 864.901367 C 1652.646729 869.846191 1651.529785 874.870117 1650.377686 879.983398 C 1651.529785 874.870117 1652.646729 869.846191 1653.732178 864.901367 Z"/>
                <path id="path86" fill="#ffffff" stroke="none" d="M 1670.38501 782.180664 C 1669.588135 786.550781 1668.774658 790.937988 1667.942871 795.352539 C 1668.774658 790.937988 1669.588135 786.550781 1670.38501 782.180664 Z"/>
                <path id="path87" fill="#ffffff" stroke="none" d="M 1369.072876 914.980957 C 1368.666016 870.276123 1368.257568 825.893555 1367.965942 782.059082 C 1368.257568 825.893555 1368.666016 870.276123 1369.072876 914.980957 Z"/>
                <path id="path88" fill="#ffffff" stroke="none" d="M 1369.452393 1319.907959 C 1369.790894 1297.713379 1370.039795 1275.430176 1370.214844 1253.08667 C 1370.039795 1275.430176 1369.790894 1297.713379 1369.452393 1319.907959 Z"/>
                <path id="path89" fill="#ffffff" stroke="none" d="M 1255.384521 859.066406 C 1253.02832 804.229492 1253.357422 757.322998 1254.900269 718.438965 C 1253.357422 757.322998 1253.02832 804.229004 1255.384521 859.066406 Z"/>
                <path id="path90" fill="#ffffff" stroke="none" d="M 1255.693237 701.062256 C 1255.403564 706.664307 1255.137573 712.457031 1254.900269 718.438965 C 1255.137573 712.457031 1255.403564 706.664307 1255.693237 701.062256 Z"/>
                <path id="path91" fill="#ffffff" stroke="none" d="M 1257.522583 899.199219 C 1258.358765 912.418457 1259.345459 926.03125 1260.507446 940.055176 C 1259.345459 926.03125 1258.358765 912.418457 1257.522583 899.199219 Z"/>
                <path id="path92" fill="#ffffff" stroke="none" d="M 1256.011353 872.518555 C 1256.419067 880.693359 1256.886719 889.036865 1257.417969 897.547119 C 1256.886719 889.036865 1256.419312 880.693359 1256.011353 872.518555 Z"/>
                <path id="path93" fill="#ffffff" stroke="none" d="M 1369.072876 914.980957 C 1369.88623 1004.390625 1370.691162 1095.088379 1370.532471 1185.263672 C 1370.691162 1095.088379 1369.88623 1004.390625 1369.072876 914.980957 Z"/>
                <path id="path94" fill="#ffffff" stroke="none" d="M 1369.452393 1319.907959 C 1369.34375 1327.0271 1369.209473 1334.120605 1369.082031 1341.220215 C 1369.082031 1341.220215 1369.082275 1341.220215 1369.082275 1341.220215 C 1369.209717 1334.120605 1369.34375 1327.0271 1369.452393 1319.907959 Z"/>
                <path id="path95" fill="#ffffff" stroke="none" d="M 1540.173828 624.195557 C 1539.540039 624.091797 1538.902588 623.984131 1538.267822 623.87915 C 1538.902344 623.984131 1539.540039 624.091797 1540.173828 624.195557 Z"/>
                <path id="path96" fill="#ffffff" stroke="none" d="M 1562.07959 627.458008 C 1562.07959 627.45752 1562.07959 627.45752 1562.07959 627.457031 C 1561.208496 627.343018 1560.334961 627.222412 1559.461914 627.103516 C 1560.334229 627.222412 1561.20874 627.343506 1562.07959 627.458008 Z"/>
                <path id="path97" fill="#ffffff" stroke="none" d="M 1552.066162 626.050049 C 1551.260742 625.929932 1550.457031 625.814697 1549.650146 625.691895 C 1550.456543 625.814697 1551.260986 625.929932 1552.066162 626.050049 Z"/>
                <path id="path98" fill="#ffffff" stroke="none" d="M 1319.66272 625.107666 C 1318.994141 625.226563 1318.328491 625.340576 1317.661011 625.458008 C 1318.328247 625.340576 1318.994629 625.226563 1319.66272 625.107666 Z"/>
                <path id="path99" fill="#ffffff" stroke="none" d="M 1330.570923 623.119385 C 1330.570923 623.118896 1330.570923 623.118408 1330.570923 623.11792 C 1330.123291 623.200684 1329.674438 623.284668 1329.227661 623.367676 C 1329.674927 623.284668 1330.123535 623.202393 1330.570923 623.119385 Z"/>
                <path id="path100" fill="#ffffff" stroke="none" d="M 1530.144287 622.516602 C 1529.077393 622.334961 1528.010742 622.154053 1526.94165 621.970459 C 1528.009521 622.153564 1529.078857 622.335693 1530.144287 622.516602 Z"/>
                <path id="path101" fill="#ffffff" stroke="none" d="M 1309.928589 626.781982 C 1309.069214 626.924805 1308.209473 627.068848 1307.351685 627.208252 C 1308.209229 627.068848 1309.069458 626.924805 1309.928589 626.781982 Z"/>
                <path id="path102" fill="#ffffff" stroke="none" d="M 1367.681519 616.393311 C 1367.681519 616.398438 1367.681519 616.403076 1367.681274 616.407471 L 1367.681519 616.407471 C 1367.681519 616.403076 1367.681885 616.397949 1367.681885 616.392822 L 1367.681519 616.393311 Z"/>
                <path id="path103" fill="#ffffff" stroke="none" d="M 1367.557983 684.452148 C 1367.59436 716.615723 1367.747192 749.182861 1367.965942 782.059082 C 1367.747192 749.182861 1367.594604 716.615723 1367.557983 684.452148 Z"/>
                <path id="path104" fill="#ffffff" stroke="none" d="M 1691.86377 647.90332 C 1691.225586 652.244873 1690.593018 656.536133 1689.968262 660.758301 C 1690.593018 656.536133 1691.225586 652.244873 1691.86377 647.90332 L 1691.86377 647.90332 Z"/>
                <path id="path105" fill="#ffffff" stroke="none" d="M 1173.688477 660.758301 C 1175.502441 673.016113 1177.266113 684.797852 1179.021118 696.265381 C 1177.266113 684.797852 1175.502441 673.016113 1173.688477 660.758301 Z"/>
                <path id="path106" fill="#ffffff" stroke="none" d="M 1172.210938 650.744873 C 1172.706787 654.114502 1173.200439 657.460693 1173.688477 660.758301 C 1173.200439 657.460693 1172.706787 654.114502 1172.210938 650.744873 L 1172.210938 650.744873 Z"/>
                <path id="path107" fill="#000000" stroke="none" d="M 1531.167969 1792.192383 C 1529.859863 1782.450195 1528.592773 1772.632568 1527.365967 1762.74292 C 1520.004883 1703.406006 1514.08252 1641.48291 1509.285889 1577.765625 C 1508.486572 1567.145996 1507.718262 1556.477051 1506.97998 1545.76123 C 1504.026611 1502.898926 1501.550293 1459.297363 1499.458984 1415.191406 C 1498.936035 1404.165039 1498.437012 1393.106934 1497.960693 1382.020996 C 1496.05542 1337.677246 1494.511719 1292.887207 1493.236328 1247.885742 C 1492.91748 1236.635254 1492.615479 1225.371582 1492.328857 1214.098389 C 1491.468994 1180.278809 1490.74707 1146.373291 1490.124023 1112.47998 C 1489.501221 1078.587158 1488.976807 1044.707031 1488.512695 1010.937744 C 1486.965088 898.375732 1486.083008 787.052734 1484.417236 680.631348 C 1484.271484 671.323486 1484.116699 662.070068 1483.958008 652.839355 C 1465.590088 650.061768 1447.134277 647.96875 1429.14917 647.96875 C 1408.839355 647.96875 1388.525024 650.786133 1367.562012 654.450195 C 1367.549072 664.412109 1367.546753 674.408691 1367.557983 684.452148 C 1367.594604 716.615723 1367.747192 749.182861 1367.965942 782.059082 C 1368.257568 825.893555 1368.666016 870.276123 1369.072876 914.980957 C 1369.88623 1004.390625 1370.691162 1095.088379 1370.532471 1185.263672 C 1370.512573 1196.535645 1370.477539 1207.799561 1370.425903 1219.05127 C 1370.373535 1230.409668 1370.303589 1241.755371 1370.214844 1253.08667 C 1370.039795 1275.430176 1369.790894 1297.713379 1369.452393 1319.907959 C 1369.34375 1327.0271 1369.209717 1334.120605 1369.082275 1341.220215 C 1369.082275 1341.220215 1369.082031 1341.220215 1369.082031 1341.220215 C 1368.060547 1398.133789 1366.415649 1454.396973 1363.901733 1509.54834 C 1363.901978 1509.54834 1363.901733 1509.548828 1363.901978 1509.548828 C 1362.557617 1539.040527 1360.953735 1568.196289 1359.07312 1596.976563 C 1358.769897 1601.615723 1358.481323 1606.273682 1358.162842 1610.892578 C 1357.394409 1622.046143 1356.588135 1633.147949 1355.728638 1644.174805 C 1350.079834 1716.624756 1342.413574 1786.248047 1332.090454 1851.831299 C 1329.140869 1870.56958 1325.974487 1888.978271 1322.576294 1907.028564 C 1319.478271 1923.484131 1316.161255 1939.60083 1312.666504 1955.439941 C 1311.879639 1959.006104 1311.075317 1962.544922 1310.267822 1966.079102 C 1306.793213 1981.280762 1303.158203 1996.231934 1299.285889 2010.807129 C 1297.09314 2019.059082 1294.835083 2027.208252 1292.509888 2035.249512 C 1283.208618 2067.416016 1272.830933 2097.867188 1261.257324 2126.376709 C 1256.807617 2137.337402 1252.123413 2147.916504 1247.313599 2158.290527 C 1242.740356 2168.153809 1238.059204 2177.840332 1233.148193 2187.150879 C 1226.430664 2199.885742 1219.392334 2212.092773 1212.017212 2223.743896 C 1200.954834 2241.220459 1189.135742 2257.445068 1176.509521 2272.323242 C 1293.394653 2159.533936 1354.64856 2082.895264 1390.089355 2017.838379 C 1394.258789 2010.18457 1398.071289 2002.690918 1401.574707 1995.317871 C 1402.450562 1993.474609 1403.307251 1991.638916 1404.145264 1989.810059 C 1415.87793 1964.205566 1423.977539 1939.952881 1430.525879 1915.335449 C 1432.864746 1906.543213 1435.005371 1897.704834 1437.043213 1888.741699 C 1439.488525 1877.986328 1441.785645 1867.051514 1444.098145 1855.801758 C 1446.374756 1871.030518 1448.727295 1885.638672 1451.484863 1899.958984 C 1452.86377 1907.119141 1454.34375 1914.206787 1455.966309 1921.264404 C 1456.777588 1924.792725 1457.624268 1928.314453 1458.511719 1931.83252 C 1459.399414 1935.351318 1460.327637 1938.867432 1461.301758 1942.386719 C 1462.275879 1945.905273 1463.296143 1949.427002 1464.367188 1952.956543 C 1471.864502 1977.663574 1481.861572 2002.758545 1496.122314 2030.020508 C 1498.159424 2033.915527 1500.283936 2037.85376 1502.500244 2041.842285 C 1535.74585 2101.666016 1589.724854 2172.609375 1681.788086 2272.178467 C 1674.415771 2262.263672 1667.330322 2251.740234 1660.520752 2240.635986 C 1646.901611 2218.427734 1634.385498 2193.898926 1622.879639 2167.283447 C 1602.744385 2120.706543 1585.702637 2067.739746 1571.258057 2009.638184 C 1554.75 1943.237061 1541.633789 1870.130127 1531.167969 1792.192383 Z"/>
                <path id="path108" fill="#000000" stroke="none" d="M 1254.900269 718.438965 C 1255.137573 712.457031 1255.403564 706.664307 1255.693237 701.062256 C 1256.275879 689.782959 1256.953857 679.27832 1257.682495 669.543701 C 1257.16272 669.546875 1256.643311 669.578369 1256.123535 669.578369 C 1225.847046 669.578369 1199.321167 663.881104 1175.029907 652.1604 C 1174.080322 651.702637 1173.157715 651.206787 1172.210938 650.744873 C 1172.706787 654.114502 1173.200439 657.460693 1173.688477 660.758301 C 1175.502441 673.016113 1177.266113 684.797852 1179.021118 696.265381 C 1180.776367 707.733398 1182.523071 718.886719 1184.302734 729.887695 C 1185.37085 736.488281 1186.450684 743.03418 1187.55127 749.559326 C 1187.918335 751.734863 1188.287354 753.907715 1188.659302 756.079346 C 1189.775024 762.595215 1190.915161 769.102783 1192.087769 775.636719 C 1192.478638 777.814453 1192.873291 779.995605 1193.271851 782.180664 C 1194.069092 786.550781 1194.881836 790.937988 1195.713745 795.352539 C 1196.54541 799.766846 1197.395996 804.208008 1198.267822 808.6875 C 1199.575439 815.406006 1200.931274 822.209473 1202.343994 829.131836 C 1203.285645 833.74707 1204.253052 838.415283 1205.248169 843.146484 C 1206.740967 850.243896 1208.296631 857.484375 1209.924561 864.901367 C 1211.009644 869.846191 1212.127075 874.870117 1213.278931 879.983398 C 1230.557983 956.679688 1255.642334 1053.45166 1297.546387 1205.172363 C 1289.115356 1161.331055 1282.184814 1119.744141 1276.52478 1080.42627 C 1274.907837 1069.192871 1273.394409 1058.144043 1271.979492 1047.28125 C 1270.564453 1036.418457 1269.247681 1025.741211 1268.02417 1015.25 C 1266.800415 1004.758301 1265.669922 994.453125 1264.627075 984.333496 C 1263.584106 974.214355 1262.628906 964.281494 1261.755859 954.534668 C 1261.319458 949.661621 1260.90332 944.834717 1260.507446 940.055176 C 1259.345459 926.03125 1258.358765 912.418457 1257.522583 899.199219 C 1257.487671 898.648438 1257.452393 898.096436 1257.417969 897.547119 C 1256.886719 889.036865 1256.419067 880.693359 1256.011353 872.518555 C 1255.785278 867.985352 1255.574707 863.496582 1255.384521 859.066406 C 1253.02832 804.229004 1253.357422 757.322998 1254.900269 718.438965 Z"/>
                <path id="path109" fill="#000000" stroke="none" d="M 1689.794922 648.967285 C 1664.781494 661.371582 1637.268311 667.540771 1605.847168 667.906494 C 1608.994385 709.244141 1611.251709 764.768066 1609.174316 834.320801 C 1608.331787 862.533203 1606.776611 893.049805 1604.27832 925.855225 C 1598.21167 1005.526367 1586.585449 1098.700195 1566.110352 1205.172363 C 1608.01416 1053.45166 1633.098633 956.679688 1650.377686 879.983398 C 1651.529785 874.870117 1652.646729 869.846191 1653.732178 864.901367 C 1655.359619 857.484375 1656.915527 850.243896 1658.408447 843.146484 C 1659.403564 838.415283 1660.37085 833.74707 1661.312744 829.131836 C 1662.725342 822.209473 1664.081055 815.406006 1665.388916 808.6875 C 1666.260498 804.208008 1667.111328 799.766846 1667.942871 795.352539 C 1668.774658 790.937988 1669.588135 786.550781 1670.38501 782.180664 C 1670.783691 779.995605 1671.178223 777.814453 1671.569092 775.636719 C 1672.741699 769.102783 1673.881348 762.595215 1674.997314 756.079346 C 1675.369141 753.907715 1675.738281 751.734863 1676.105225 749.559326 C 1677.206055 743.03418 1678.286133 736.488281 1679.354004 729.887695 C 1681.133545 718.886719 1682.880127 707.733398 1684.635498 696.265381 C 1686.390625 684.797852 1688.154053 673.016113 1689.968262 660.758301 C 1690.593018 656.536133 1691.225586 652.244873 1691.86377 647.90332 C 1691.171875 648.249512 1690.487549 648.624023 1689.794922 648.967285 Z"/>
                <path id="path110" fill="#000000" stroke="none" d="M 899.62207 348.00293 C 906.825684 361.262207 915.006714 374.73584 924.103027 388.281006 C 975.648682 465.039795 1056.584839 544.119629 1155.633789 599.762695 C 1167.286621 606.309326 1179.190063 612.530762 1191.325806 618.386719 C 1212.266235 628.48999 1233.894531 632.078369 1256.123535 632.078369 C 1259.059082 632.078369 1262.009888 631.987793 1264.966309 631.869385 C 1265.74707 631.838135 1266.526489 631.814453 1267.308716 631.775146 C 1270.34375 631.623535 1273.387573 631.427246 1276.443726 631.169922 C 1276.930664 631.128662 1277.420776 631.074219 1277.908325 631.031006 C 1280.571411 630.792969 1283.242798 630.518311 1285.921387 630.212158 C 1286.775391 630.114502 1287.629639 630.015869 1288.485107 629.911621 C 1291.345703 629.564209 1294.212769 629.190918 1297.090332 628.779785 C 1297.341064 628.744385 1297.59082 628.713867 1297.841553 628.677734 C 1301.00061 628.221436 1304.172241 627.724365 1307.351685 627.208252 C 1308.209473 627.068848 1309.069214 626.924805 1309.928589 626.781982 C 1312.5 626.354248 1315.076904 625.913818 1317.661011 625.458008 C 1318.328491 625.340576 1318.994141 625.226563 1319.66272 625.107666 C 1322.842041 624.540527 1326.029663 623.959229 1329.227661 623.367676 C 1329.674438 623.284668 1330.123291 623.200684 1330.570923 623.11792 C 1331.14624 623.010986 1331.722412 622.904297 1332.298462 622.796875 C 1335.132813 622.269043 1337.969116 621.73999 1340.817993 621.20752 C 1344.234375 620.569092 1347.657715 619.931396 1351.094238 619.302246 C 1351.38623 619.248779 1351.678955 619.197266 1351.970825 619.144043 C 1354.903076 618.608887 1357.844238 618.084961 1360.790405 617.569824 C 1361.692993 617.412109 1362.595337 617.256836 1363.49939 617.101807 C 1364.892212 616.862793 1366.2854 616.625244 1367.681519 616.393311 L 1367.681885 616.392822 C 1367.681885 616.397949 1367.681519 616.403076 1367.681519 616.407471 C 1387.874512 613.049561 1408.377686 610.46875 1429.14917 610.46875 C 1447.401611 610.46875 1465.447998 612.297363 1483.258789 614.832764 C 1483.258789 614.831787 1483.258789 614.830322 1483.258789 614.828857 C 1483.643066 614.883789 1484.02832 614.93457 1484.412354 614.98999 C 1484.781738 615.043457 1485.152832 615.091797 1485.522217 615.145752 C 1488.834473 615.628418 1492.13623 616.138428 1495.431641 616.661377 C 1496.386719 616.812988 1497.338867 616.967529 1498.292725 617.121582 C 1500.83667 617.532715 1503.375244 617.950195 1505.908936 618.375 C 1506.773193 618.519775 1507.637451 618.662842 1508.500244 618.808838 C 1511.709229 619.352051 1514.909912 619.899658 1518.101318 620.449707 C 1521.057373 620.959229 1524.000977 621.466309 1526.94165 621.970459 C 1528.010742 622.154053 1529.077393 622.334961 1530.144287 622.516602 C 1532.859375 622.979492 1535.566162 623.433105 1538.267822 623.87915 C 1538.902588 623.984131 1539.540039 624.091797 1540.173828 624.195557 C 1543.342773 624.713379 1546.500488 625.211914 1549.650146 625.691895 C 1550.457031 625.814697 1551.260742 625.929932 1552.066162 626.050049 C 1554.537842 626.417725 1557.002441 626.768799 1559.461914 627.103516 C 1560.334961 627.222412 1561.208496 627.343018 1562.07959 627.457031 C 1562.095703 627.458984 1562.111816 627.460938 1562.127686 627.463623 C 1565.300049 627.878662 1568.464355 628.270752 1571.615967 628.614014 C 1571.853516 628.639893 1572.088867 628.659424 1572.326172 628.684814 C 1575.213379 628.993896 1578.088867 629.260986 1580.957764 629.498047 C 1581.844971 629.571289 1582.730225 629.636475 1583.615479 629.701904 C 1586.112549 629.887207 1588.602295 630.038818 1591.085205 630.158691 C 1591.768066 630.191895 1592.453857 630.235596 1593.135742 630.263428 C 1596.197998 630.387695 1599.249023 630.454346 1602.289307 630.462891 C 1602.34082 630.462891 1602.391846 630.461426 1602.443359 630.461426 C 1602.443359 630.462891 1602.443848 630.464355 1602.444092 630.466553 C 1602.60498 630.466553 1602.767578 630.477051 1602.928467 630.477051 C 1627.077637 630.477051 1650.52124 626.585693 1673.134766 615.371582 C 1714.884277 594.667725 1753.810547 569.657227 1789.150635 542.080566 C 1794.199219 538.141113 1799.174805 534.149414 1804.074707 530.109863 C 1857.974854 485.679443 1902.750977 435.527344 1935.444092 386.412354 C 1944.360352 373.017578 1952.378174 359.699707 1959.436768 346.595947 C 1968.848633 329.124756 1976.555664 312.034424 1982.416016 295.649414 C 1991.207031 271.072754 1995.842285 248.08374 1995.842285 227.780029 C 1995.842285 222.498779 1995.528809 217.25293 1994.909912 212.046631 C 1994.60083 209.442871 1994.215332 206.849854 1993.75415 204.266602 C 1985.458496 157.769043 1952.788818 114.612061 1901.905273 77.751465 C 1887.770996 67.512207 1872.231689 57.759277 1855.418457 48.555176 C 1848.693115 44.873291 1841.76416 41.279785 1834.640137 37.778076 C 1820.391357 30.774658 1805.361816 24.138672 1789.618408 17.902832 C 1786.883301 16.81958 1784.119141 15.883545 1781.341309 15.014404 C 1780.718994 14.81958 1780.096924 14.624756 1779.472656 14.440186 C 1776.731934 13.630859 1773.975342 12.899658 1771.194336 12.285156 C 1770.846924 12.208252 1770.495361 12.150391 1770.147217 12.076172 C 1767.580322 11.531738 1764.994629 11.074707 1762.394043 10.686035 C 1761.82251 10.600586 1761.252686 10.506348 1760.679688 10.428223 C 1757.857178 10.043701 1755.015869 9.742432 1752.154541 9.528809 C 1751.611816 9.488281 1751.064941 9.464844 1750.520996 9.430176 C 1747.939453 9.266357 1745.343018 9.165283 1742.730469 9.130615 C 1742.248291 9.124512 1741.769775 9.104736 1741.286621 9.102539 C 1738.180908 9.088379 1735.055908 9.155518 1731.907959 9.310059 C 1731.324951 9.339111 1730.73291 9.400146 1730.148193 9.434326 C 1727.600098 9.58374 1725.042236 9.772461 1722.467529 10.023193 C 1721.311279 10.13623 1720.145264 10.282715 1718.983398 10.414795 C 1716.949951 10.64624 1714.911621 10.893066 1712.862305 11.181885 C 1711.574219 11.363525 1710.281006 11.561768 1708.986572 11.764893 C 1707.019043 12.073486 1705.044434 12.407227 1703.0625 12.763672 C 1701.751465 12.999756 1700.440918 13.234131 1699.123535 13.48999 C 1697.055664 13.891846 1694.976563 14.328857 1692.893555 14.776855 C 1691.681641 15.037842 1690.475342 15.282959 1689.258301 15.558594 C 1686.479492 16.188232 1683.68457 16.861816 1680.879395 17.564697 C 1679.80835 17.833252 1678.734619 18.108398 1677.659912 18.386719 C 1674.972656 19.08252 1672.276855 19.798584 1669.565674 20.552246 C 1668.142578 20.94751 1666.708496 21.367188 1665.278809 21.777588 C 1663.323975 22.338623 1661.368408 22.901611 1659.401855 23.488037 C 1657.824463 23.958008 1656.240967 24.440674 1654.656006 24.926025 C 1652.820557 25.488037 1650.981201 26.057129 1649.135742 26.637451 C 1647.486816 27.15625 1645.836426 27.677246 1644.179688 28.209229 C 1642.388184 28.784424 1640.589111 29.37085 1638.788574 29.959961 C 1637.092041 30.515381 1635.39917 31.065674 1633.69458 31.631836 C 1632.054688 32.177002 1630.404541 32.734375 1628.757324 33.287842 C 1566.668945 54.161377 1499.404053 80.965332 1429.14917 80.965332 C 1425.518311 80.965332 1421.896973 80.857666 1418.282471 80.680176 C 1417.082275 80.621094 1415.886963 80.516846 1414.688477 80.439453 C 1412.269775 80.282959 1409.852539 80.113525 1407.441406 79.883545 C 1406.045166 79.750732 1404.653076 79.58667 1403.259521 79.429932 C 1401.035767 79.180176 1398.814331 78.913574 1396.59729 78.606445 C 1395.162354 78.407471 1393.729858 78.193359 1392.297852 77.97168 C 1390.106445 77.632324 1387.918823 77.266113 1385.734497 76.874512 C 1384.327393 76.622803 1382.920776 76.371582 1381.516724 76.098877 C 1379.247437 75.658447 1376.984375 75.181885 1374.722778 74.69043 C 1373.437134 74.411377 1372.149902 74.145752 1370.866821 73.851318 C 1368.251221 73.25 1365.644043 72.604248 1363.039063 71.942383 C 1362.128174 71.710938 1361.213379 71.5 1360.303711 71.261475 C 1356.789795 70.339844 1353.285645 69.368652 1349.79187 68.350098 C 1349.034302 68.12915 1348.281494 67.888184 1347.525269 67.662842 C 1344.777344 66.844971 1342.033813 66.01123 1339.29895 65.141602 C 1338.056396 64.746338 1336.819458 64.333252 1335.57959 63.928467 C 1333.334595 63.195068 1331.091797 62.456055 1328.855591 61.693604 C 1327.495972 61.229736 1326.140991 60.756104 1324.785034 60.282715 C 1322.647339 59.535889 1320.513306 58.781738 1318.384033 58.013184 C 1317.034546 57.525879 1315.687256 57.036133 1314.341187 56.54126 C 1312.178467 55.745117 1310.021973 54.939941 1307.868408 54.126221 C 1306.592529 53.644043 1305.316406 53.165527 1304.043823 52.677734 C 1301.715088 51.785645 1299.394653 50.883301 1297.076904 49.976318 C 1296.014404 49.560303 1294.948975 49.149902 1293.888794 48.731201 C 1290.842896 47.529297 1287.807129 46.318359 1284.780884 45.101074 C 1284.477417 44.979004 1284.171509 44.859131 1283.868408 44.737061 C 1280.419922 43.348389 1276.986694 41.953857 1273.564331 40.55957 C 1271.975952 39.912598 1270.400146 39.268799 1268.817627 38.622314 C 1266.221802 37.562256 1263.633911 36.508545 1261.053711 35.455566 C 1258.844482 34.554199 1256.642334 33.658691 1254.44458 32.766602 C 1253.101074 32.22168 1251.762817 31.681641 1250.423828 31.140869 C 1248.407715 30.327148 1246.398315 29.521973 1244.392578 28.720947 C 1243.059937 28.188232 1241.728394 27.658936 1240.400146 27.133545 C 1238.384155 26.335938 1236.376587 25.553711 1234.371094 24.774414 C 1233.112793 24.285156 1231.853149 23.793701 1230.599121 23.312744 C 1228.360474 22.45459 1226.133179 21.619873 1223.907959 20.790771 C 1222.922974 20.423584 1221.932617 20.045654 1220.950317 19.68457 C 1217.756348 18.511719 1214.575439 17.368896 1211.410156 16.270752 C 1211.003784 16.129883 1210.602051 16.002197 1210.196167 15.862305 C 1207.463013 14.921875 1204.73938 14.008789 1202.028076 13.134033 C 1200.981567 12.796875 1199.943481 12.484619 1198.900269 12.157471 C 1196.827393 11.508057 1194.757813 10.869141 1192.697876 10.264404 C 1191.508911 9.915039 1190.325562 9.586914 1189.141235 9.253662 C 1187.225586 8.7146 1185.314331 8.193115 1183.410278 7.697754 C 1182.184326 7.378906 1180.96106 7.071777 1179.739624 6.772217 C 1177.86377 6.312256 1175.995361 5.881592 1174.13147 5.469482 C 1172.932617 5.204102 1171.733276 4.937988 1170.539307 4.693359 C 1168.593018 4.294678 1166.656982 3.942139 1164.723633 3.601318 C 1163.643311 3.410645 1162.559204 3.202637 1161.48291 3.03125 C 1159.146851 2.658936 1156.824951 2.351563 1154.508667 2.07251 C 1153.854858 1.993652 1153.19519 1.885742 1152.542847 1.814453 C 1149.591553 1.492676 1146.657227 1.255127 1143.739014 1.098877 C 1142.960571 1.057129 1142.19104 1.061768 1141.414795 1.032227 C 1139.321045 0.953369 1137.232178 0.900146 1135.15564 0.913818 C 1133.34375 0.926025 1131.546753 1.025635 1129.747681 1.112061 C 1128.412109 1.176758 1127.070557 1.205322 1125.74231 1.312012 C 1123.857544 1.463135 1121.990112 1.718994 1120.120483 1.958496 C 1118.89563 2.115723 1117.66272 2.223389 1116.444824 2.419922 C 1114.375244 2.75293 1112.326538 3.210693 1110.276245 3.660889 C 1109.278076 3.880127 1108.269409 4.037354 1107.275879 4.2854 C 1104.240112 5.042236 1101.224731 5.923828 1098.233521 6.958252 C 955.42627 56.341797 862.455444 136.849854 862.455444 227.780029 C 862.455444 261.982422 875.609497 303.804688 899.62207 348.00293 Z M 1299.849609 579.748779 L 1290.682129 560.392578 C 1303.845459 554.158691 1307.997803 549.900635 1309.216553 548.260742 C 1303.249268 541.536621 1269.574219 532.947021 1236.249023 529.826172 L 1238.240723 508.504395 C 1314.394287 515.60498 1328.880005 534.312256 1330.735474 544.83252 C 1333.697754 561.613281 1314.526611 572.796875 1299.849609 579.748779 Z M 1503.295898 544.83252 C 1505.151367 534.312256 1519.637207 515.60498 1595.792725 508.504395 L 1597.782471 529.826172 C 1564.457275 532.947021 1530.782227 541.536621 1524.816895 548.260742 C 1526.033691 549.900635 1530.187988 554.158691 1543.347168 560.392578 L 1534.183838 579.748779 C 1519.506836 572.796875 1500.33374 561.613281 1503.295898 544.83252 Z M 1961.0271 177.775391 C 1959.000732 208.311279 1917.423584 223.816162 1854.484131 247.28833 C 1847.320068 249.960205 1839.921387 252.723389 1832.36792 255.581543 C 1830.205811 266.065186 1823.001953 282.40332 1810.580566 304.805176 C 1795.501221 332.014648 1772.812256 358.960693 1742.524414 385.635742 C 1712.231201 412.322754 1681.47583 425.69458 1650.287354 425.770752 L 1650.287109 425.770752 C 1624.527588 425.491211 1605.218018 414.004395 1596.95752 399.246094 C 1589.320557 407.965332 1582.041748 417.159912 1575.199463 426.880127 L 1551.070313 409.895996 C 1589.349854 355.512695 1640.553223 316.197998 1692.928711 286.456543 C 1701.800537 272.568115 1711.744873 264.427002 1717.831055 267.177002 C 1718.072998 267.286377 1718.278076 267.461914 1718.502441 267.602783 L 1707.127686 278.641602 C 1755.840332 252.606445 1804.651367 234.381836 1844.17334 219.643311 C 1880.741455 206.00415 1930.822754 187.327393 1931.587891 175.822266 C 1931.742432 173.480469 1929.45166 160.172852 1868.904785 127.921875 L 1882.780029 101.880127 C 1939.916992 132.316406 1962.585449 154.305176 1961.0271 177.775391 Z M 980.87793 101.880127 L 994.749146 127.921875 C 934.206299 160.172852 931.913452 173.480469 932.068115 175.822266 C 932.833008 187.327393 982.914429 206.00415 1019.482666 219.643311 C 1059.004395 234.382324 1107.816772 252.607422 1156.530762 278.643555 L 1145.154541 267.602783 C 1145.378784 267.461914 1145.58374 267.286377 1145.825928 267.177002 C 1151.912109 264.427002 1161.856567 272.568604 1170.72876 286.45752 C 1223.10376 316.198975 1274.306396 355.513672 1312.585693 409.895996 L 1288.456421 426.880127 C 1281.217896 416.596191 1273.476318 406.921143 1265.352783 397.755615 C 1257.586914 413.225098 1237.850342 425.481445 1211.229126 425.770752 L 1211.228882 425.770752 C 1180.040161 425.69458 1149.285034 412.322754 1118.991577 385.635742 C 1088.703857 358.960693 1066.014771 332.014648 1050.935791 304.805176 C 1038.171631 281.7854 1030.88855 265.135498 1028.957764 254.700439 C 1022.215698 252.15625 1015.598755 249.684326 1009.173828 247.28833 C 946.234375 223.816162 904.653076 208.311279 902.626709 177.775391 C 901.070313 154.305176 923.740845 132.316406 980.87793 101.880127 Z"/>
                <path id="path111" fill="#000000" stroke="none" d="M 1718.502441 267.602783 C 1718.278076 267.461914 1718.072998 267.286377 1717.831055 267.177002 C 1711.744873 264.427002 1701.800537 272.568115 1692.928711 286.456543 C 1697.655518 283.772461 1702.390137 281.173584 1707.127686 278.641602 L 1718.502441 267.602783 Z"/>
                <path id="path112" fill="#000000" stroke="none" d="M 1713.99707 314.337402 C 1715.19751 311.680908 1716.270508 309.045654 1717.232666 306.452148 C 1702.68042 314.328857 1688.252441 322.924072 1674.18042 332.359131 C 1669.590576 349.544434 1666.239014 368.981201 1664.701904 389.254639 C 1692.796143 363.320801 1703.864258 336.761719 1713.99707 314.337402 Z"/>
                <path id="path113" fill="#000000" stroke="none" d="M 1145.825928 267.177002 C 1145.58374 267.286377 1145.378784 267.461914 1145.154541 267.602783 L 1156.530762 278.643555 C 1161.267822 281.175537 1166.002075 283.773682 1170.72876 286.45752 C 1161.856567 272.568604 1151.912109 264.427002 1145.825928 267.177002 Z"/>
                <path id="path114" fill="#000000" stroke="none" d="M 1189.476196 332.358643 C 1175.404297 322.923584 1160.976074 314.328857 1146.424072 306.452148 C 1147.386108 309.045654 1148.459106 311.680908 1149.659668 314.337402 C 1159.792236 336.761719 1170.860474 363.320801 1198.954712 389.254639 C 1197.417603 368.981201 1194.06604 349.544434 1189.476196 332.358643 Z"/>
                <path id="path115" fill="#000000" stroke="none" d="M 595.29895 939.894043 C 511.790894 875.029297 401.553711 787.266357 384.213379 771.74707 C 278.201965 676.869385 276.527527 692.053955 206.55304 604.98999 C 144.101318 527.285645 138.108948 469.519775 173.046021 373.664551 C 189.630798 328.161377 238.732788 296.44751 276.112244 271.810791 C 290.344116 262.430664 309.006653 251.826172 317.726013 244.302246 C 338.200012 226.636475 432.497559 161.52124 442.672729 148.696045 C 507.670044 66.770752 400.090698 -59.258789 189.48761 138.140137 C 133.425293 190.687256 95.288757 240.99707 72.793701 289.691406 C 74.947754 262.795898 79.905823 235.237305 88.672546 207.437012 C 92.008606 196.857422 108.043274 146.653076 75.068054 113.570313 C 39.670715 78.058594 -6.532166 105.857178 1.559814 222.928711 C 9.828308 342.549316 21.647522 400.771973 58.875427 470.450684 C 112.002197 642.719238 348.306641 803.160889 647.327881 985.093994 C 661.033325 993.432861 674.863159 1001.813965 688.820557 1010.246582 C 678.813599 1004.123047 641.066895 975.444336 595.29895 939.894043 Z"/>
                <path id="path116" fill="#000000" stroke="none" d="M 2758.321777 111.626465 C 2725.599121 144.950195 2742.015381 195.035645 2745.432373 205.590576 C 2754.845215 234.668701 2760.048584 263.506348 2762.233398 291.619141 C 2739.621338 241.886719 2700.553223 190.590088 2642.600586 137.079102 C 2430.527832 -58.73999 2323.893555 68.090088 2389.501465 149.527344 C 2399.772217 162.275879 2494.553711 226.684814 2515.15918 244.196777 C 2523.93457 251.655273 2542.675781 262.119873 2556.977295 271.393066 C 2594.539795 295.750244 2643.877441 327.096436 2660.802002 372.474365 C 2696.454346 468.065674 2690.894043 525.874512 2629.025146 604.043457 C 2559.702881 691.628418 2557.915283 676.456543 2452.615967 772.123535 C 2432.336914 790.547363 2284.039063 910.07373 2201.794189 973.968262 C 2175.899902 994.084961 2156.536865 1008.701172 2149.799561 1012.893066 C 2159.129395 1007.160645 2168.397949 1001.454102 2177.616211 995.764893 C 2477.696045 810.582275 2716.80835 647.931641 2773.553955 475.211914 C 2813.144531 402.150146 2825.06543 343.982178 2832.660156 220.441895 C 2839.86084 103.314453 2793.447754 75.855713 2758.321777 111.626465 Z"/>
                <path id="path117" fill="#000000" stroke="none" d="M 1942.320313 1208.468262 C 1935.802246 1215.124268 1929.364258 1221.52832 1922.991943 1227.462402 C 1853.415283 1294.22583 1781.984863 1358.887451 1708.280518 1420.493896 C 1677.509033 1446.2146 1646.382568 1471.458252 1614.763184 1496.010742 C 1625.299805 1489.443848 1636.178711 1482.683105 1647.285645 1475.792236 C 1773.287109 1397.623047 1932.218994 1300.763184 2039.45752 1233.215576 C 2100.671387 1194.658691 2118.551514 1103.514404 2063.246826 1109.083496 C 2055.146484 1112.024658 2047.232666 1115.925781 2039.482666 1120.549805 C 2004.227295 1141.583984 1972.405273 1177.748047 1942.320313 1208.468262 Z"/>
                <path id="path118" fill="#000000" stroke="none" d="M 911.04126 1236.907227 C 868.791138 1197.5625 823.716675 1137.750488 770.786255 1118.527344 C 715.481567 1112.958984 733.361816 1204.103027 794.575439 1242.660156 C 911.26709 1316.161865 1089.200073 1424.389893 1219.269775 1505.455322 C 1111.915039 1422.093018 1009.665894 1331.543213 911.04126 1236.907227 Z"/>
                <path id="path119" fill="#000000" stroke="none" d="M 1735.533691 1519.438477 C 1685.12207 1523.618896 1601.940674 1547.738281 1549.009277 1591.894287 C 1622.173584 1645.475586 1695.760254 1651.895508 1746.172119 1647.714355 C 1796.584229 1643.53418 1835.06958 1611.429199 1832.13208 1576.006348 C 1829.194092 1540.583984 1785.945801 1515.257568 1735.533691 1519.438477 Z"/>
                <path id="path120" fill="#000000" stroke="none" d="M 1128.122925 1519.438477 C 1077.710938 1515.257568 1034.462402 1540.583984 1031.524902 1576.006348 C 1028.587036 1611.429199 1067.07251 1643.53418 1117.484497 1647.714355 C 1167.896484 1651.895508 1241.483276 1645.475586 1314.647339 1591.894287 C 1261.715942 1547.738281 1178.534912 1523.618896 1128.122925 1519.438477 Z"/>
            </g>
        </g>
    </g>
</svg>
